<svg width="524" height="135" viewBox="0 0 524 135" fill="none" xmlns="http://www.w3.org/2000/svg">
<path d="M0.833333 109C0.833333 114.891 5.60896 119.667 11.5 119.667C17.391 119.667 22.1667 114.891 22.1667 109C22.1667 103.109 17.391 98.3333 11.5 98.3333C5.60896 98.3333 0.833333 103.109 0.833333 109ZM84.5 19.5L85.0385 17.5738L84.5 19.5ZM321.5 19.5L323.189 18.4293L323.156 18.3771L323.12 18.327L321.5 19.5ZM502.333 124C502.333 129.891 507.109 134.667 513 134.667C518.891 134.667 523.667 129.891 523.667 124C523.667 118.109 518.891 113.333 513 113.333C507.109 113.333 502.333 118.109 502.333 124ZM13.4363 109.501C13.7493 108.29 14.0856 107.038 14.4447 105.751L10.5917 104.676C10.226 105.987 9.8832 107.263 9.56367 108.499L13.4363 109.501ZM16.6667 98.2797C17.4236 95.8791 18.2452 93.4014 19.1296 90.8714L15.3537 89.5514C14.4555 92.1208 13.6209 94.6376 12.8518 97.0769L16.6667 98.2797ZM21.819 83.5399C22.7395 81.1453 23.7114 78.727 24.733 76.3042L21.0473 74.75C20.0083 77.2139 19.0205 79.6719 18.0854 82.1047L21.819 83.5399ZM27.8842 69.1745C28.9753 66.8195 30.1121 64.4789 31.2931 62.1704L27.7321 60.3486C26.5259 62.7064 25.3664 65.0939 24.2548 67.493L27.8842 69.1745ZM34.9854 55.3276C36.2796 53.0565 37.6175 50.8386 38.9977 48.6924L35.6332 46.5289C34.2113 48.74 32.8365 51.0194 31.51 53.3473L34.9854 55.3276ZM43.3864 42.3202C44.951 40.2065 46.5598 38.199 48.2106 36.3192L45.205 33.6798C43.4733 35.6517 41.7951 37.7469 40.1714 39.9403L43.3864 42.3202ZM53.5455 30.8461C55.4766 29.0801 57.4511 27.5052 59.4658 26.1473L57.2301 22.8304C55.0325 24.3116 52.904 26.0124 50.8461 27.8944L53.5455 30.8461ZM66.0137 22.5877C68.3263 21.6302 70.6822 20.9708 73.0811 20.641L72.5364 16.6783C69.7716 17.0583 67.0854 17.8147 64.4836 18.8919L66.0137 22.5877ZM80.3645 20.6653C81.548 20.8347 82.747 21.0866 83.9615 21.4261L85.0385 17.5738C83.66 17.1885 82.2907 16.9003 80.9315 16.7057L80.3645 20.6653ZM83.9615 21.4261C85.1824 21.7675 86.3629 22.1595 87.5058 22.5987L88.9406 18.8649C87.6806 18.3807 86.3807 17.9491 85.0385 17.5738L83.9615 21.4261ZM94.1661 25.9133C96.2887 27.2296 98.2776 28.7309 100.157 30.3881L102.803 27.3878C100.772 25.597 98.6042 23.9588 96.2742 22.5139L94.1661 25.9133ZM105.463 35.7651C107.109 37.658 108.673 39.6698 110.175 41.7724L113.43 39.4464C111.866 37.2594 110.225 35.145 108.481 33.1401L105.463 35.7651ZM114.441 48.1881C115.8 50.3638 117.119 52.5914 118.423 54.8461L121.886 52.8441C120.569 50.5667 119.225 48.2971 117.834 46.0695L114.441 48.1881ZM122.291 61.6344C123.587 63.9189 124.889 66.2036 126.215 68.4497L129.659 66.4162C128.352 64.2023 127.065 61.9437 125.77 59.6612L122.291 61.6344ZM130.378 75.1832C131.852 77.4352 133.382 79.619 134.995 81.6954L138.154 79.2416C136.622 77.2687 135.154 75.1761 133.725 72.9931L130.378 75.1832ZM140.313 87.7712C142.25 89.7087 144.318 91.4835 146.548 93.045L148.842 89.7684C146.827 88.3576 144.937 86.7382 143.142 84.943L140.313 87.7712ZM153.753 97.037C156.215 98.069 158.841 98.8564 161.656 99.3623L162.363 95.4254C159.837 94.9713 157.492 94.2671 155.299 93.348L153.753 97.037ZM169.8 100.016C172.373 99.9879 175.076 99.7527 177.924 99.295L177.289 95.3457C174.621 95.7745 172.115 95.9905 169.755 96.0167L169.8 100.016ZM185.722 97.5762C186.994 97.2248 188.293 96.8336 189.619 96.4016L188.381 92.5983C187.11 93.0123 185.869 93.3859 184.657 93.7205L185.722 97.5762ZM189.619 96.4016C190.92 95.978 192.204 95.5207 193.472 95.0315L192.032 91.2996C190.829 91.7637 189.612 92.1972 188.381 92.5983L189.619 96.4016ZM200.913 91.7195C203.333 90.4972 205.693 89.1627 207.994 87.7318L205.883 84.3348C203.675 85.7073 201.418 86.9833 199.11 88.149L200.913 91.7195ZM214.702 83.1868C216.871 81.5957 218.987 79.9252 221.054 78.1905L218.483 75.1264C216.477 76.8099 214.429 78.4261 212.336 79.9616L214.702 83.1868ZM227.083 72.8365C229.04 71.0036 230.953 69.1215 232.825 67.2049L229.963 64.41C228.128 66.2887 226.258 68.1287 224.348 69.9169L227.083 72.8365ZM238.325 61.3611C240.131 59.3765 241.898 57.3708 243.631 55.3589L240.601 52.7483C238.887 54.7374 237.144 56.7157 235.366 58.6695L238.325 61.3611ZM248.787 49.2505C250.502 47.1823 252.185 45.1219 253.838 43.0865L250.733 40.5648C249.084 42.5948 247.411 44.6436 245.708 46.6971L248.787 49.2505ZM258.847 36.9038C260.552 34.8005 262.227 32.7451 263.878 30.7536L260.798 28.201C259.134 30.209 257.448 32.2774 255.74 34.3843L258.847 36.9038ZM268.98 24.7393C270.776 22.6821 272.544 20.735 274.289 18.9219L271.407 16.148C269.607 18.0185 267.795 20.0152 265.967 22.1081L268.98 24.7393ZM279.873 13.5483C281.938 11.7372 283.965 10.1772 285.964 8.90229L283.813 5.52967C281.605 6.93794 279.416 8.62918 277.236 10.5407L279.873 13.5483ZM292.621 5.73388C294.979 5.02346 297.307 4.79076 299.645 5.08824L300.15 1.12023C297.2 0.744807 294.306 1.04883 291.467 1.90393L292.621 5.73388ZM306.367 7.41099C308.295 8.49739 310.289 9.97929 312.355 11.9197L315.094 9.00422C312.835 6.88273 310.585 5.19629 308.331 3.92613L306.367 7.41099ZM317.474 17.5141C318.267 18.501 319.069 19.5532 319.88 20.673L323.12 18.327C322.272 17.1566 321.43 16.0507 320.591 15.0077L317.474 17.5141ZM319.811 20.5707C320.458 21.5915 321.106 22.6904 321.756 23.862L325.254 21.9214C324.572 20.6921 323.884 19.5251 323.189 18.4293L319.811 20.5707ZM325.237 30.7591C326.287 33.0129 327.337 35.4129 328.39 37.9315L332.08 36.3886C331.012 33.8326 329.94 31.3826 328.863 29.0705L325.237 30.7591ZM331.323 45.2076C332.259 47.6032 333.198 50.0671 334.142 52.5797L337.887 51.1732C336.939 48.6493 335.993 46.1682 335.049 43.7516L331.323 45.2076ZM336.887 59.9656C337.788 62.4073 338.705 64.9057 339.618 67.38L343.371 65.9952C342.452 63.5035 341.549 61.0474 340.64 58.5813L336.887 59.9656ZM342.376 74.7973C343.308 77.2809 344.25 79.755 345.201 82.2013L348.929 80.7517C347.985 78.3233 347.049 75.8642 346.12 73.3911L342.376 74.7973ZM348.145 89.5821C349.168 92.0762 350.205 94.5213 351.257 96.8963L354.915 95.2762C353.88 92.9404 352.857 90.5296 351.845 88.0635L348.145 89.5821ZM354.631 104.135C355.856 106.623 357.105 108.998 358.382 111.229L361.854 109.243C360.625 107.095 359.414 104.795 358.219 102.368L354.631 104.135ZM362.731 118.076C364.44 120.467 366.216 122.593 368.069 124.373L370.84 121.489C369.207 119.92 367.589 117.995 365.984 115.75L362.731 118.076ZM375.193 129.195C378.032 130.331 381.024 130.616 384.122 129.86L383.174 125.974C380.932 126.521 378.791 126.326 376.679 125.481L375.193 129.195ZM391.811 125.898C393.768 124.358 395.739 122.404 397.731 120.019L394.661 117.454C392.808 119.673 391.033 121.42 389.338 122.753L391.811 125.898ZM402.503 113.54C403.235 112.431 403.971 111.263 404.713 110.033L401.287 107.967C400.572 109.154 399.864 110.277 399.164 111.337L402.503 113.54ZM404.713 110.033C405.394 108.902 406.065 107.778 406.723 106.659L403.277 104.629C402.625 105.736 401.962 106.849 401.287 107.967L404.713 110.033ZM410.612 99.8998C411.907 97.5936 413.156 95.3157 414.359 93.068L410.833 91.1797C409.642 93.4043 408.406 95.6586 407.124 97.9407L410.612 99.8998ZM417.967 86.1669C419.177 83.7962 420.338 81.4634 421.454 79.1707L417.857 77.4207C416.752 79.6914 415.602 82.0014 414.405 84.3485L417.967 86.1669ZM424.802 72.1261C425.922 69.7158 426.991 67.3565 428.016 65.0513L424.36 63.4267C423.344 65.7134 422.284 68.0526 421.174 70.4413L424.802 72.1261ZM431.135 57.8881C432.185 55.4299 433.185 53.0441 434.14 50.7353L430.444 49.2058C429.493 51.5036 428.5 53.8752 427.457 56.3169L431.135 57.8881ZM437.094 43.5204C438.116 41.0049 439.083 38.6114 440.014 36.3303L436.31 34.8196C435.379 37.1032 434.406 39.5095 433.388 42.0151L437.094 43.5204ZM442.977 29.1915C444.064 26.6422 445.1 24.3097 446.112 22.2016L442.505 20.4719C441.459 22.652 440.397 25.0428 439.297 27.6233L442.977 29.1915ZM449.694 15.5792C451.261 13.1061 452.752 11.3739 454.229 10.2911L451.864 7.06485C449.82 8.56295 448.013 10.7579 446.315 13.4383L449.694 15.5792ZM459.941 9.0678C460.878 9.27774 461.915 9.66571 463.072 10.2717L464.928 6.72834C463.528 5.99488 462.16 5.466 460.817 5.16472L459.941 9.0678ZM463.072 10.2717C463.802 10.6543 464.585 11.3075 465.403 12.2998L468.488 9.75374C467.439 8.48238 466.261 7.42679 464.928 6.72834L463.072 10.2717ZM469.038 18.6955C469.943 20.803 470.809 23.2224 471.644 25.9072L475.464 24.719C474.6 21.9425 473.687 19.3861 472.713 17.1173L469.038 18.6955ZM473.739 33.4139C474.355 35.8469 474.952 38.4041 475.534 41.0587L479.441 40.2012C478.852 37.5142 478.245 34.9148 477.617 32.4327L473.739 33.4139ZM477.141 48.7665C477.644 51.2958 478.139 53.8802 478.628 56.5L482.56 55.7654C482.068 53.1345 481.571 50.5342 481.064 47.9858L477.141 48.7665ZM480.052 64.2689C480.52 66.8561 480.985 69.4536 481.452 72.0493L485.389 71.3412C484.923 68.7497 484.457 66.1467 483.989 63.5574L480.052 64.2689ZM482.866 79.8411C483.35 82.4706 483.839 85.0757 484.335 87.6353L488.262 86.8738C487.769 84.3303 487.283 81.7383 486.8 79.1171L482.866 79.8411ZM485.903 95.406C486.469 98.0865 487.05 100.69 487.648 103.188L491.538 102.255C490.95 99.7994 490.377 97.2324 489.817 94.5795L485.903 95.406ZM489.67 110.915C490.469 113.691 491.308 116.273 492.198 118.606L495.935 117.18C495.095 114.979 494.29 112.507 493.513 109.808L489.67 110.915ZM495.787 126.073C497.657 129.021 499.996 131.349 502.985 131.898L503.708 127.964C502.377 127.719 500.835 126.564 499.165 123.931L495.787 126.073ZM511.749 128.4C512.681 127.509 513.623 126.452 514.576 125.231L511.424 122.769C510.564 123.87 509.751 124.776 508.985 125.508L511.749 128.4Z" fill="#FAE4E4"/>
</svg>
